<svg width="495px" height="116px" version="1.1" xmlns="http://www.w3.org/2000/svg" xmlns:xlink="http://www.w3.org/1999/xlink" overflow="visible" id="gjc8ykn">
   <desc>Engraved by Verovio 6.3.0-425dd7b</desc>
   <defs>
      <g id="E050-gjc8ykn">
         <path transform="scale(1,-1)" d="M441 -245c-23 -4 -48 -6 -76 -6c-59 0 -102 7 -130 20c-88 42 -150 93 -187 154c-26 44 -43 103 -48 176c0 6 -1 13 -1 19c0 54 15 111 45 170c29 57 65 106 110 148s96 85 153 127c-3 16 -8 46 -13 92c-4 43 -5 73 -5 89c0 117 16 172 69 257c34 54 64 82 89 82 c21 0 43 -30 69 -92s39 -115 41 -159v-15c0 -109 -21 -162 -67 -241c-13 -20 -63 -90 -98 -118c-13 -9 -25 -19 -37 -29l31 -181c8 1 18 2 28 2c58 0 102 -12 133 -35c59 -43 92 -104 98 -184c1 -7 1 -15 1 -22c0 -123 -87 -209 -181 -248c8 -57 17 -110 25 -162 c5 -31 6 -58 6 -80c0 -30 -5 -53 -14 -70c-35 -64 -88 -99 -158 -103c-5 0 -11 -1 -16 -1c-37 0 -72 10 -108 27c-50 24 -77 59 -80 105v11c0 29 7 55 20 76c18 28 45 42 79 44h6c49 0 93 -42 97 -87v-9c0 -51 -34 -86 -105 -106c17 -24 51 -36 102 -36c62 0 116 43 140 85 c9 16 13 41 13 74c0 20 -1 42 -5 67c-8 53 -18 106 -26 159zM461 939c-95 0 -135 -175 -135 -286c0 -24 2 -48 5 -71c50 39 92 82 127 128c40 53 60 100 60 140v8c-4 53 -22 81 -55 81h-2zM406 119l54 -326c73 25 110 78 110 161c0 7 0 15 -1 23c-7 95 -57 142 -151 142h-12 zM382 117c-72 -2 -128 -47 -128 -120v-7c2 -46 43 -99 75 -115c-3 -2 -7 -5 -10 -10c-70 33 -116 88 -123 172v11c0 68 44 126 88 159c23 17 49 29 78 36l-29 170c-21 -13 -52 -37 -92 -73c-50 -44 -86 -84 -109 -119c-45 -69 -67 -130 -67 -182v-13c5 -68 35 -127 93 -176 s125 -73 203 -73c25 0 50 3 75 9c-19 111 -36 221 -54 331z" />
      </g>
      <g id="E0A4-gjc8ykn">
         <path transform="scale(1,-1)" d="M0 -39c0 68 73 172 200 172c66 0 114 -37 114 -95c0 -84 -106 -171 -218 -171c-64 0 -96 30 -96 94z" />
      </g>
      <g id="E260-gjc8ykn">
         <path transform="scale(1,-1)" d="M20 110c32 16 54 27 93 27c26 0 35 -3 54 -13c13 -7 24 -20 27 -38l4 -25c0 -28 -16 -57 -45 -89c-23 -25 -39 -44 -65 -68l-88 -79v644h20v-359zM90 106c-32 0 -48 -10 -70 -29v-194c31 31 54 59 71 84c21 32 32 59 32 84c0 9 1 16 1 20c0 14 -3 21 -11 30l-8 3z" />
      </g>
   </defs>
   <style type="text/css">#gjc8ykn g.ending, #gjc8ykn g.fing, #gjc8ykn g.reh, #gjc8ykn g.tempo {font-weight:bold;}#gjc8ykn g.dir, #gjc8ykn g.dynam, #gjc8ykn g.mNum {font-style:italic;}#gjc8ykn g.label {font-weight:normal;}#gjc8ykn ellipse, #gjc8ykn path, #gjc8ykn polygon, #gjc8ykn polyline, #gjc8ykn rect {stroke:currentColor}#gjc8ykn g.cursor {fill:dodgerblue; color:dodgerblue;}#gjc8ykn g.cursor.chord {fill:limegreen; color:limegreen;}</style>
   <svg class="definition-scale" color="black" font-family="Times, serif" viewBox="0 0 10300 2400">
      <g class="page-margin" transform="translate(400, 400)">
         <g id="qo9unqn" class="mdiv pageMilestone" />
         <g id="r8fiwlu" class="score pageMilestone" />
         <g id="q1qdsl0p" class="system">
            <g id="telxt1w" class="section systemMilestone" />
            <g id="k1cwl3t5" class="section systemMilestone" />
            <g id="g2m7u8w" class="measure">
               <g id="p1p66dn" class="staff">
                  <path d="M0 540 L3598 540" stroke-width="13" />
                  <path d="M0 720 L3598 720" stroke-width="13" />
                  <path d="M0 900 L3598 900" stroke-width="13" />
                  <path d="M0 1080 L3598 1080" stroke-width="13" />
                  <path d="M0 1260 L3598 1260" stroke-width="13" />
                  <g id="n5sc1b5" class="clef">
                     <use xlink:href="#E050-gjc8ykn" transform="translate(90, 1080) scale(0.72, 0.72)" />
                  </g>
                  <g id="ou0yimi" class="keySig" />
                  <g id="p1b26cri" class="meterSig" visibility="hidden" />
                  <g class="ledgerLines below">
                     <path d="M777 1440 L1099 1440" stroke-width="22" />
                  </g>
                  <g id="so46tof" class="layer">
                     <g id="t1ir6ebv" class="note">
                        <g class="notehead">
                           <use xlink:href="#E0A4-gjc8ykn" transform="translate(825, 1440) scale(0.72, 0.72)" />
                        </g>
                        <g id="gh5nszr" class="stem">
                           <path d="M1042 1412 L1042 810" stroke-width="18" />
                        </g>
                     </g>
                     <g id="ujarj7o" class="note">
                        <g class="notehead">
                           <use xlink:href="#E0A4-gjc8ykn" transform="translate(1515, 1260) scale(0.72, 0.72)" />
                        </g>
                        <g id="hp7g8yk" class="stem">
                           <path d="M1732 1232 L1732 630" stroke-width="18" />
                        </g>
                     </g>
                     <g id="v15megcu" class="note">
                        <g class="notehead">
                           <use xlink:href="#E0A4-gjc8ykn" transform="translate(2205, 1080) scale(0.72, 0.72)" />
                        </g>
                        <g id="ic3jj41" class="stem">
                           <path d="M2422 1052 L2422 450" stroke-width="18" />
                        </g>
                     </g>
                     <g id="w1sl0i4w" class="note">
                        <g class="notehead">
                           <use xlink:href="#E0A4-gjc8ykn" transform="translate(2895, 900) scale(0.72, 0.72)" />
                        </g>
                        <g id="j1rkzqfn" class="stem">
                           <path d="M2904 928 L2904 1500" stroke-width="18" />
                        </g>
                        <g id="x1pldbxb" class="accid">
                           <use xlink:href="#E260-gjc8ykn" transform="translate(2708, 900) scale(0.72, 0.72)" />
                        </g>
                     </g>
                  </g>
               </g>
               <g id="q1j3xdwe" class="harm">
                  <text x="825" y="362" font-size="0px">
                     <tspan id="r1wnqkqp" class="text">
                        <tspan font-size="405px">C7</tspan>
                     </tspan>
                  </text>
               </g>
               <g id="o12qlc3z" class="barLine">
                  <path d="M3585 540 L3585 1260" stroke-width="27" />
               </g>
            </g>
            <g id="y1w9qblk" class="measure">
               <g id="h9sljc4" class="staff">
                  <path d="M3598 540 L6551 540" stroke-width="13" />
                  <path d="M3598 720 L6551 720" stroke-width="13" />
                  <path d="M3598 900 L6551 900" stroke-width="13" />
                  <path d="M3598 1080 L6551 1080" stroke-width="13" />
                  <path d="M3598 1260 L6551 1260" stroke-width="13" />
                  <g class="ledgerLines below">
                     <path d="M3730 1440 L4052 1440" stroke-width="22" />
                  </g>
                  <g id="kesrtcm" class="layer">
                     <g id="ls9i2bb" class="note">
                        <g class="notehead">
                           <use xlink:href="#E0A4-gjc8ykn" transform="translate(3778, 1440) scale(0.72, 0.72)" />
                        </g>
                        <g id="k1ig192t" class="stem">
                           <path d="M3995 1412 L3995 810" stroke-width="18" />
                        </g>
                     </g>
                     <g id="m1pl1ep0" class="note">
                        <g class="notehead">
                           <use xlink:href="#E0A4-gjc8ykn" transform="translate(4468, 1350) scale(0.72, 0.72)" />
                        </g>
                        <g id="l1sgbldz" class="stem">
                           <path d="M4685 1322 L4685 720" stroke-width="18" />
                        </g>
                     </g>
                     <g id="nnvgkgu" class="note">
                        <g class="notehead">
                           <use xlink:href="#E0A4-gjc8ykn" transform="translate(5158, 1260) scale(0.72, 0.72)" />
                        </g>
                        <g id="m3wxnca" class="stem">
                           <path d="M5375 1232 L5375 630" stroke-width="18" />
                        </g>
                        <g id="o1ns7ftw" class="accid">
                           <use xlink:href="#E260-gjc8ykn" transform="translate(4971, 1260) scale(0.72, 0.72)" />
                        </g>
                     </g>
                     <g id="p9bo86o" class="note">
                        <g class="notehead">
                           <use xlink:href="#E0A4-gjc8ykn" transform="translate(5848, 900) scale(0.72, 0.72)" />
                        </g>
                        <g id="na97t4d" class="stem">
                           <path d="M5857 928 L5857 1500" stroke-width="18" />
                        </g>
                        <g id="q1hzg1d4" class="accid">
                           <use xlink:href="#E260-gjc8ykn" transform="translate(5661, 900) scale(0.72, 0.72)" />
                        </g>
                     </g>
                  </g>
               </g>
               <g id="iy3gwzp" class="harm">
                  <text x="3778" y="362" font-size="0px">
                     <tspan id="j1clqptp" class="text">
                        <tspan font-size="405px">C7</tspan>
                     </tspan>
                  </text>
               </g>
               <g id="g1x989qj" class="barLine">
                  <path d="M6538 540 L6538 1260" stroke-width="27" />
               </g>
            </g>
            <g id="rd7yqvn" class="measure">
               <g id="aflvxrq" class="staff">
                  <path d="M6551 540 L9504 540" stroke-width="13" />
                  <path d="M6551 720 L9504 720" stroke-width="13" />
                  <path d="M6551 900 L9504 900" stroke-width="13" />
                  <path d="M6551 1080 L9504 1080" stroke-width="13" />
                  <path d="M6551 1260 L9504 1260" stroke-width="13" />
                  <g class="ledgerLines below">
                     <path d="M6683 1440 L7005 1440" stroke-width="22" />
                  </g>
                  <g id="d1hx4g5n" class="layer">
                     <g id="e13mq7f1" class="note">
                        <g class="notehead">
                           <use xlink:href="#E0A4-gjc8ykn" transform="translate(6731, 1440) scale(0.72, 0.72)" />
                        </g>
                        <g id="o12y5c9" class="stem">
                           <path d="M6948 1412 L6948 810" stroke-width="18" />
                        </g>
                     </g>
                     <g id="f1dkcn5b" class="note">
                        <g class="notehead">
                           <use xlink:href="#E0A4-gjc8ykn" transform="translate(7421, 1260) scale(0.72, 0.72)" />
                        </g>
                        <g id="p1w6nyyd" class="stem">
                           <path d="M7638 1232 L7638 630" stroke-width="18" />
                        </g>
                        <g id="g1g7az3i" class="accid">
                           <use xlink:href="#E260-gjc8ykn" transform="translate(7234, 1260) scale(0.72, 0.72)" />
                        </g>
                     </g>
                     <g id="hrdibcu" class="note">
                        <g class="notehead">
                           <use xlink:href="#E0A4-gjc8ykn" transform="translate(8111, 1080) scale(0.72, 0.72)" />
                        </g>
                        <g id="qd0142v" class="stem">
                           <path d="M8328 1052 L8328 450" stroke-width="18" />
                        </g>
                        <g id="ij8lndx" class="accid">
                           <use xlink:href="#E260-gjc8ykn" transform="translate(7924, 1080) scale(0.72, 0.72)" />
                        </g>
                     </g>
                     <g id="jzrtsbu" class="note">
                        <g class="notehead">
                           <use xlink:href="#E0A4-gjc8ykn" transform="translate(8801, 990) scale(0.72, 0.72)" />
                        </g>
                        <g id="rhr4611" class="stem">
                           <path d="M9018 962 L9018 360" stroke-width="18" />
                        </g>
                     </g>
                  </g>
               </g>
               <g id="bnb3e6p" class="harm">
                  <text x="6731" y="362" font-size="0px">
                     <tspan id="c10y6bp9" class="text">
                        <tspan font-size="405px">C7</tspan>
                     </tspan>
                  </text>
               </g>
               <g id="z1j4v6fp" class="barLine">
                  <path d="M9491 540 L9491 1260" stroke-width="27" />
               </g>
            </g>
            <g id="t52f56a" class="systemMilestoneEnd k1cwl3t5" />
            <g id="u1ad38r2" class="systemMilestoneEnd telxt1w" />
         </g>
         <g id="vghrx4n" class="pageMilestoneEnd r8fiwlu" />
         <g id="wpnkxj6" class="pageMilestoneEnd qo9unqn" />
      </g>
   </svg>
</svg>
